<?xml version="1.0" ?><svg height="30px" id="Layer_1" version="1.1" viewBox="0 0 512 512" width="30px" xml:space="preserve" xmlns="http://www.w3.org/2000/svg" xmlns:cc="http://creativecommons.org/ns#" xmlns:dc="http://purl.org/dc/elements/1.1/" xmlns:inkscape="http://www.inkscape.org/namespaces/inkscape" xmlns:rdf="http://www.w3.org/1999/02/22-rdf-syntax-ns#" xmlns:sodipodi="http://sodipodi.sourceforge.net/DTD/sodipodi-0.dtd" xmlns:svg="http://www.w3.org/2000/svg" xmlns:xlink="http://www.w3.org/1999/xlink"><defs id="defs13"><linearGradient gradientTransform="translate(1635.9966,-2013.2351)" gradientUnits="userSpaceOnUse" id="linearGradient3006" x1="256.00049" x2="256.00049" xlink:href="#SVGID_1_-8" y1="512" y2="0.00048828131"/><linearGradient gradientUnits="userSpaceOnUse" id="SVGID_1_-8" x1="256.00049" x2="256.00049" y1="512" y2="0.00048828131"><stop id="stop4-8" offset="0" style="stop-color:#0c80b1;stop-opacity:1"/><stop id="stop6-2" offset="1" style="stop-color:#11a7df;stop-opacity:1"/></linearGradient><linearGradient gradientUnits="userSpaceOnUse" id="linearGradient3471" x1="256.00049" x2="256.00049" xlink:href="#SVGID_1_-8" y1="512" y2="0.00048828131"/><linearGradient gradientTransform="matrix(0,-1,-1,0,512,512)" gradientUnits="userSpaceOnUse" id="linearGradient3781" x1="-1.8544069e-006" x2="512" xlink:href="#SVGID_1_-8-1" y1="256" y2="256"/><linearGradient gradientUnits="userSpaceOnUse" id="SVGID_1_-8-1" x1="256.00049" x2="256.00049" y1="512" y2="0.00048828131"><stop id="stop4-8-7" offset="0" style="stop-color:#0c80b1;stop-opacity:1"/><stop id="stop6-2-4" offset="1" style="stop-color:#11a7df;stop-opacity:1"/></linearGradient><linearGradient gradientTransform="matrix(0,-1,-1,0,512,512)" gradientUnits="userSpaceOnUse" id="linearGradient3026" x1="-1.8544069e-006" x2="512" xlink:href="#SVGID_1_-8-1" y1="256" y2="256"/><linearGradient gradientTransform="matrix(0,-1,-1,0,1236.6102,130.16949)" gradientUnits="userSpaceOnUse" id="linearGradient3030" x1="-1.8544069e-006" x2="512" xlink:href="#SVGID_1_-8-1" y1="256" y2="256"/><linearGradient gradientUnits="userSpaceOnUse" id="linearGradient3040" x1="256.00049" x2="256.00049" xlink:href="#SVGID_1_-8" y1="512" y2="0.00048828131"/><linearGradient gradientTransform="matrix(0,-1,-1,0,511.9852,512.01324)" gradientUnits="userSpaceOnUse" id="linearGradient3042" x1="-1.8544069e-006" x2="512" xlink:href="#SVGID_1_-8-1" y1="256" y2="256"/><linearGradient gradientTransform="translate(997.96608,110.64407)" gradientUnits="userSpaceOnUse" id="linearGradient3790" x1="-997.96606" x2="-998.34283" xlink:href="#SVGID_1_-8-1" y1="353.98837" y2="-63.276527"/></defs><linearGradient gradientTransform="matrix(0,1,-1,0,512,0)" gradientUnits="userSpaceOnUse" id="SVGID_1_" spreadMethod="pad" x1="0" x2="512" y1="256" y2="256"><stop id="stop4" offset="0" style="stop-color:#00616f;stop-opacity:1"/><stop id="stop6" offset="1" style="stop-color:#284660;stop-opacity:1"/></linearGradient><path d="M 511.99998,97.209352 C 493.16345,105.5652 472.91638,111.21001 451.6709,113.74954 473.35672,100.7498 490.01465,80.164827 497.85594,55.634888 477.55768,67.67457 455.07827,76.414418 431.14993,81.124849 411.99084,60.708812 384.69096,47.954861 354.4778,47.954861 c -58.00969,0 -105.04465,47.029824 -105.04465,105.039529 0,8.23297 0.92928,16.25091 2.72128,23.93861 C 164.85315,172.55283 87.45399,130.73259 35.64463,67.180498 26.60269,82.694117 21.42124,100.73703 21.42124,119.98828 c 0,36.4442 18.54468,68.59529 46.7303,87.43179 -17.21857,-0.54527 -33.41571,-5.27105 -47.57766,-13.13792 -0.0119,0.43773 -0.0119,0.87804 -0.0119,1.32094 0,50.8929 36.20872,93.34544 84.26254,103.00179 -8.81409,2.40128 -18.0941,3.68383 -27.67366,3.68383 -6.76864,0 -13.34783,-0.66047 -19.76321,-1.88416 13.36833,41.73063 52.16008,72.09996 98.12752,72.94475 -35.95014,28.17541 -81.24172,44.96905 -130.45782,44.96905 -8.47875,0 -16.83971,-0.4992 -25.05733,-1.46947 46.48712,29.80615 101.70128,47.19626 161.02171,47.19626 193.21119,0 298.87024,-160.05912 298.87024,-298.87282 0,-4.55423 -0.10239,-9.08289 -0.30462,-13.59103 20.52097,-14.80708 38.32837,-33.3057 52.41097,-54.371938 z" id="path5-1" style="fill:url(#linearGradient3790);fill-opacity:1;stroke:none"/></svg>